PathFileType	4	(X/Y/Z)	SUBJ24_3_walk_RCNL2025.trc
DataRate	CameraRate	NumFrames	NumMarkers	Units	OrigDataRate	OrigDataStartFrame	OrigNumFrames
100	100	9	25	mm	100	51	406
Frame#	Time	R_Shoulder			L_Shoulder			C7			J_Notch			R_Elbow			L_Elbow			R_Wrist			L_Wrist			R_Asis			L_Asis			Sacral			Thoracic			Sternum			R_Thigh_Lateral			R_Knee_Lateral			R_Shank_Lateral			R_Ankle_Lateral			R_Heel			R_Toe			L_Thigh_Lateral			L_Knee_Lateral			L_Shank_Lateral			L_Ankle_Lateral			L_Heel			L_Toe		
		X1	Y1	Z1	X2	Y2	Z2	X3	Y3	Z3	X4	Y4	Z4	X5	Y5	Z5	X6	Y6	Z6	X7	Y7	Z7	X8	Y8	Z8	X9	Y9	Z9	X10	Y10	Z10	X11	Y11	Z11	X12	Y12	Z12	X13	Y13	Z13	X14	Y14	Z14	X15	Y15	Z15	X16	Y16	Z16	X17	Y17	Z17	X18	Y18	Z18	X19	Y19	Z19	X20	Y20	Z20	X21	Y21	Z21	X22	Y22	Z22	X23	Y23	Z23	X24	Y24	Z24	X25	Y25	Z25
51	0.50000000	-2637.573486	1307.313110	338.340698	-2674.984619	1319.080688	-4.718464	-2740.490479	1374.495483	175.975372	-2606.380615	1285.032104	161.118027	-2646.228516	1021.302795	428.213104	-2712.887207	1027.439819	-91.303734	-2552.719849	803.613800	407.701736	-2629.514526	805.886688	-86.183342	-2629.842285	864.177734	328.762909	-2632.673096	873.630798	2.655584	-2805.394287	914.256287	176.258606	-2806.256348	1107.435913	175.030518	-2522.177490	1070.431519	149.435883	-2680.134766	553.877197	372.238464	-2605.212158	422.940216	312.156036	-2718.520996	335.621826	352.527283	-2899.716309	192.199356	271.065186	-2938.277344	211.855392	206.331573	-2852.868164	70.093468	270.289001	-2632.173584	559.018372	-9.770368	-2600.306885	433.828064	51.006447	-2614.875488	276.524078	6.206746	-2634.487793	52.558147	80.022896	-2681.767822	27.331566	136.476334	-2515.274658	34.987053	108.479233
52	0.51000000	-2627.911621	1308.736572	338.169373	-2663.381592	1321.280029	-5.049141	-2729.761719	1376.220825	175.378387	-2595.686035	1286.630859	161.092484	-2639.536865	1022.851135	428.296478	-2697.882568	1029.816772	-93.474648	-2548.312378	804.167786	408.332123	-2607.730713	810.837799	-87.018063	-2618.593018	866.705078	328.252441	-2622.998535	874.910278	2.085670	-2794.971680	915.940735	175.791519	-2795.829834	1109.158203	173.380402	-2511.202393	1072.165405	149.446350	-2662.152832	555.714355	371.850616	-2583.210205	426.527679	312.036743	-2693.735840	335.682648	352.140747	-2871.831299	188.605698	270.269318	-2911.878174	206.308731	205.615051	-2819.504639	69.511848	270.079712	-2627.132812	559.693542	-9.853622	-2597.983643	433.882782	50.837795	-2613.784180	276.507233	6.173484	-2634.422607	52.623634	80.070351	-2681.768066	27.453276	136.486130	-2515.266602	34.951099	108.466774
53	0.52000000	-2618.382324	1309.977661	337.985931	-2651.792236	1323.284912	-5.371803	-2719.119629	1377.717773	174.731430	-2585.067871	1288.020386	161.106720	-2633.064453	1024.261353	428.442688	-2682.940674	1032.049683	-95.613144	-2543.872314	804.717560	409.003448	-2586.167480	815.863953	-87.673599	-2607.156982	868.980408	327.725677	-2613.458984	875.981018	1.533729	-2784.570312	917.391052	175.520905	-2785.423340	1110.641479	171.755386	-2500.073975	1073.782837	149.411591	-2644.547852	557.388062	371.417114	-2561.738281	430.108734	311.835938	-2669.090820	335.375092	351.781097	-2843.220215	183.767578	269.604614	-2884.746582	199.327469	205.101791	-2785.052246	68.142334	269.767273	-2622.245117	560.178589	-9.743412	-2595.587402	433.894073	50.805439	-2612.681152	276.508728	6.213157	-2634.360596	52.720333	80.130905	-2681.749512	27.578024	136.520477	-2515.239990	34.907032	108.474243
54	0.53000000	-2608.980957	1311.024536	337.807068	-2640.222412	1325.061035	-5.681386	-2708.555176	1378.973511	174.038452	-2574.520264	1289.195435	161.149857	-2626.763916	1025.516968	428.634491	-2668.067627	1034.098877	-97.702484	-2539.385620	805.217804	409.696854	-2564.863159	820.914368	-88.146633	-2595.616455	870.981995	327.203430	-2603.997314	876.816711	1.013156	-2774.183350	918.604614	175.438370	-2775.035156	1111.870728	170.176208	-2489.049561	1075.205200	149.396072	-2627.305908	558.901917	370.977661	-2540.875732	433.626892	311.551147	-2644.660645	334.771057	351.430115	-2813.897461	177.813965	269.052643	-2856.823486	191.021423	204.728851	-2749.639648	66.122093	269.444183	-2617.452393	560.512268	-9.480536	-2593.084961	433.861725	50.892025	-2611.535645	276.522949	6.304524	-2634.293457	52.830147	80.209656	-2681.713867	27.703556	136.576279	-2515.196533	34.854725	108.495712
55	0.54000000	-2599.693359	1311.869019	337.648346	-2628.679688	1326.577515	-5.971279	-2698.055908	1379.984375	173.310257	-2564.034180	1290.154419	161.208908	-2620.584473	1026.604858	428.854828	-2653.265137	1035.932129	-99.725380	-2534.837402	805.625580	410.393250	-2543.828857	825.946625	-88.455528	-2584.063477	872.701904	326.711151	-2594.562988	877.393433	0.535344	-2763.805908	919.583801	175.528442	-2764.658691	1112.840332	168.660812	-2478.108643	1076.423340	149.369003	-2610.375977	560.271973	370.585541	-2520.682617	437.017883	311.174377	-2620.488281	333.880341	351.072174	-2783.866455	170.882080	268.599304	-2828.035400	181.527695	204.436920	-2713.402588	63.579166	269.196564	-2612.696289	560.739319	-9.118145	-2590.458984	433.794312	51.068127	-2610.332520	276.544617	6.424004	-2634.216064	52.940708	80.307892	-2681.665283	27.828091	136.650085	-2515.138428	34.795563	108.524696
56	0.55000000	-2590.496094	1312.507446	337.521820	-2617.171143	1327.810303	-6.233316	-2687.608643	1380.754272	172.563416	-2553.599121	1290.898071	161.270386	-2614.474854	1027.514404	429.087341	-2638.527344	1037.527100	-101.664284	-2530.213745	805.905304	411.080704	-2523.048340	830.923676	-88.641886	-2572.574463	874.136841	326.269348	-2585.132324	877.696899	0.106490	-2753.432617	920.332153	175.770996	-2754.285400	1113.559448	167.231216	-2466.890381	1077.508301	149.204926	-2593.693359	561.525330	370.300812	-2501.201172	440.211700	310.695496	-2596.608154	332.689026	350.696991	-2753.122559	163.117340	268.238159	-2798.309326	171.013779	204.183426	-2676.474609	60.637691	269.104950	-2607.926025	560.902649	-8.712683	-2587.703369	433.701874	51.299339	-2609.067139	276.569183	6.548428	-2634.130859	53.048149	80.419922	-2681.612549	27.951195	136.736893	-2515.068115	34.732960	108.555122
57	0.56000000	-2581.354980	1312.939941	337.434814	-2605.704834	1328.743164	-6.457985	-2677.198486	1381.291260	171.819046	-2543.202881	1291.426880	161.323990	-2608.384277	1028.237793	429.316650	-2623.840576	1038.872070	-103.501183	-2525.505859	806.032471	411.758133	-2502.493042	835.811005	-88.759115	-2561.194092	875.281494	325.885925	-2575.701172	877.732483	-0.273597	-2743.056152	920.852539	176.143143	-2743.910645	1114.049683	165.916946	-2454.938965	1078.550049	148.772049	-2577.202148	562.693542	370.175842	-2482.461426	443.139984	310.107483	-2573.052002	331.194153	350.298218	-2721.660889	154.676178	267.969513	-2767.587646	159.676453	203.947159	-2638.977295	57.427673	269.238770	-2603.103271	561.038208	-8.316349	-2584.822266	433.596222	51.547802	-2607.740723	276.593079	6.657925	-2634.045410	53.153469	80.536995	-2681.567383	28.074001	136.830353	-2514.988281	34.671646	108.581436
58	0.57000000	-2572.229004	1313.170410	337.390503	-2594.290283	1329.369873	-6.636828	-2666.811279	1381.603882	171.101257	-2532.832031	1291.740723	161.368134	-2602.265625	1028.770752	429.528168	-2609.184082	1039.964478	-105.217758	-2520.709717	805.993958	412.433273	-2482.142212	840.573486	-88.851957	-2549.924561	876.124695	325.554138	-2566.266113	877.526672	-0.609241	-2732.667480	921.147278	176.620300	-2733.527832	1114.330933	164.752426	-2442.073242	1079.577393	148.037811	-2560.872803	563.798950	370.239441	-2464.484375	445.741547	309.411102	-2549.843994	329.410034	349.873993	-2689.482910	145.728424	267.798218	-2735.838623	147.736877	203.726410	-2601.015381	54.093636	269.643158	-2598.200195	561.169067	-7.970735	-2581.826904	433.491425	51.774643	-2606.353271	276.613586	6.738059	-2633.965820	53.258282	80.651421	-2681.539307	28.198332	136.924667	-2514.902588	34.614342	108.597992
59	0.58000000	-2563.071289	1313.205566	337.388824	-2582.940918	1329.694214	-6.765581	-2656.432617	1381.700439	170.434875	-2522.471924	1291.840088	161.410187	-2596.076172	1029.112671	429.709167	-2594.533447	1040.809204	-106.796188	-2515.824707	805.785553	413.117233	-2461.994141	845.174225	-88.943056	-2538.729736	876.650146	325.256805	-2556.812988	877.119873	-0.904302	-2722.256104	921.219421	177.177170	-2723.122803	1114.405884	163.767166	-2428.563965	1080.526001	147.106934	-2544.718018	564.839905	370.486450	-2447.287354	447.964600	308.615936	-2526.999023	327.358704	349.429016	-2656.604004	136.458649	267.730255	-2703.064209	135.433640	203.530685	-2562.677979	50.797665	270.328156	-2593.192627	561.300049	-7.702163	-2578.724365	433.397614	51.947163	-2604.897217	276.628204	6.780619	-2633.894531	53.361645	80.759003	-2681.532471	28.325443	137.016327	-2514.817627	34.559849	108.599121
